# xmcd
#
# Track frame offsets:
# 150
# 14163
# 36316
# 54475
# 69332
# 88764
# 106755
# 122119
# 150243
# 166597
# 189208
# 206591
# 226539
# 249944
#
# Disc length: 3527 seconds
#
#
# Revision: 0
# Processed by: cddbd v1.4PL0 Copyright (c) Steve Scherf et al.
# Submitted via: FreeRIP 2.51 
#
DISCID=a20dc50e
DTITLE=von Doris - Der Sound-Man
DYEAR=1900
DGENRE=Country
TTITLE0=Mary Lou
TTITLE1=Pferdehalfter-Song
TTITLE2=Der Roudy v. d. Country Band
TTITLE3=Alice
TTITLE4=Weiﬂ der Geier
TTITLE5=Tennessy Walz
TTITLE6=Country Roads
TTITLE7=Sommer in der Stadt
TTITLE8=Under the boudwalk
TTITLE9=Ein Bild kann nicht lachen
TTITLE10=Der Wilde Westen
TTITLE11=Komm unter meine Decke
TTITLE12=Flieg, junger Adler
TTITLE13=Ein Bett im Kornfeld
EXTD=
EXTT0=
EXTT1=
EXTT2=
EXTT3=
EXTT4=
EXTT5=
EXTT6=
EXTT7=
EXTT8=
EXTT9=
EXTT10=
EXTT11=
EXTT12=
EXTT13=
PLAYORDER=
